<svg preserveAspectRatio="none" overflow="visible" style="display: block;" width="12" height="12" viewBox="0 0 12 12" fill="none" xmlns="http://www.w3.org/2000/svg">
<g id="Add--alt">
<g clip-path="url(#clip0_0_182)">
<rect width="12" height="12" rx="6" fill="#1465E6"/>
<g id="Vector">
<path d="M6 1.5C8.475 1.5 10.5 3.525 10.5 6C10.5 8.475 8.475 10.5 6 10.5C3.525 10.5 1.5 8.475 1.5 6C1.5 3.525 3.525 1.5 6 1.5ZM6 0.75C3.1125 0.75 0.75 3.1125 0.75 6C0.75 8.8875 3.1125 11.25 6 11.25C8.8875 11.25 11.25 8.8875 11.25 6C11.25 3.1125 8.8875 0.75 6 0.75Z" fill="white"/>
<path d="M9 5.625H6.375V3H5.625V5.625H3V6.375H5.625V9H6.375V6.375H9V5.625Z" fill="white"/>
</g>
</g>
</g>
<defs>
<clipPath id="clip0_0_182">
<rect width="12" height="12" rx="6" fill="white"/>
</clipPath>
</defs>
</svg>
