<svg preserveAspectRatio="none" width="100%" height="100%" overflow="visible" style="display: block;" viewBox="0 0 6337 469" fill="none" xmlns="http://www.w3.org/2000/svg">
<g id="Group">
<path id="Vector" d="M6321.84 234.5H6273.54C6245.25 234.499 6218.44 221.881 6200.44 200.098L6071.34 43.857C6053.33 22.074 6026.52 9.457 5998.22 9.456H5901.63C5873.35 9.456 5846.54 22.073 5828.54 43.855L5699.43 200.1C5681.43 221.883 5654.62 234.499 5626.32 234.5H5529.73C5501.44 234.503 5474.63 221.885 5456.64 200.1L5327.53 43.855C5309.53 22.073 5282.72 9.456 5254.42 9.456H5157.83C5129.54 9.452 5102.73 22.07 5084.74 43.855L4955.63 200.1C4937.63 221.883 4910.82 234.499 4882.52 234.5H4785.93C4757.64 234.503 4730.83 221.885 4712.84 200.1L4583.73 43.855C4565.73 22.073 4538.92 9.456 4510.62 9.456H4414.03C4385.74 9.456 4358.92 22.073 4340.92 43.855L4211.83 200.1C4193.83 221.883 4167.01 234.499 4138.72 234.5H4042.13C4013.84 234.499 3987.02 221.883 3969.02 200.1L3839.93 43.855C3821.93 22.073 3795.11 9.456 3766.82 9.456H3670.23C3641.94 9.456 3615.12 22.073 3597.12 43.855L3468.03 200.1C3450.03 221.883 3423.21 234.499 3394.92 234.5H3298.35C3270.05 234.499 3243.24 221.883 3225.24 200.1L3096.15 43.855C3078.14 22.073 3051.33 9.456 3023.04 9.456H2926.45C2898.15 9.456 2871.34 22.073 2853.34 43.855L2724.25 200.1C2706.24 221.883 2679.43 234.499 2651.14 234.5H2554.55C2526.25 234.499 2499.44 221.883 2481.44 200.1L2352.35 43.855C2334.34 22.073 2307.53 9.456 2279.24 9.456H2182.65C2154.35 9.456 2127.54 22.073 2109.53 43.855L1980.43 200.1C1962.43 221.885 1935.62 234.503 1907.33 234.5H1810.74C1782.45 234.5 1755.63 221.883 1737.63 200.1L1608.53 43.855C1590.53 22.072 1563.72 9.455 1535.43 9.456H1438.84C1410.54 9.455 1383.73 22.072 1365.73 43.855L1236.63 200.1C1218.63 221.883 1191.82 234.499 1163.53 234.5H1066.94C1038.64 234.5 1011.83 221.883 993.831 200.1L864.73 43.855C846.73 22.072 819.917 9.455 791.625 9.456H695.033C666.74 9.456 639.928 22.072 621.928 43.855L492.827 200.1C474.827 221.883 448.016 234.499 419.724 234.5H371.427" stroke="var(--stroke-0, #BE4D00)" stroke-opacity="0.2" stroke-miterlimit="10"/>
<path id="Vector_2" d="M6321.84 234.5H6273.54C6245.25 234.501 6218.44 247.119 6200.44 268.902L6071.34 425.145C6053.33 446.927 6026.52 459.544 5998.22 459.544H5901.63C5873.35 459.543 5846.54 446.926 5828.54 425.145L5699.43 268.9C5681.43 247.117 5654.62 234.501 5626.32 234.5H5529.73C5501.44 234.497 5474.63 247.115 5456.64 268.9L5327.53 425.145C5309.53 446.927 5282.72 459.544 5254.42 459.544H5157.83C5129.54 459.547 5102.73 446.93 5084.74 425.145L4955.63 268.9C4937.63 247.117 4910.82 234.501 4882.52 234.5H4785.93C4757.64 234.497 4730.83 247.115 4712.84 268.9L4583.73 425.145C4565.73 446.927 4538.92 459.544 4510.62 459.544H4414.03C4385.74 459.544 4358.92 446.927 4340.92 425.145L4211.83 268.9C4193.83 247.117 4167.01 234.501 4138.72 234.5H4042.13C4013.84 234.501 3987.02 247.117 3969.02 268.9L3839.93 425.143C3821.93 446.926 3795.11 459.543 3766.82 459.544H3670.23C3641.94 459.544 3615.12 446.927 3597.12 425.145L3468.03 268.9C3450.03 247.117 3423.21 234.501 3394.92 234.5H3298.35C3270.05 234.501 3243.24 247.117 3225.24 268.9L3096.15 425.145C3078.14 446.927 3051.33 459.544 3023.04 459.544H2926.45C2898.15 459.544 2871.34 446.927 2853.34 425.145L2724.25 268.9C2706.24 247.117 2679.43 234.501 2651.14 234.5H2554.55C2526.25 234.501 2499.44 247.117 2481.44 268.9L2352.35 425.145C2334.34 446.927 2307.53 459.544 2279.24 459.544H2182.65C2154.35 459.544 2127.54 446.927 2109.53 425.145L1980.43 268.9C1962.43 247.115 1935.62 234.497 1907.33 234.5H1810.74C1782.45 234.5 1755.63 247.117 1737.63 268.9L1608.53 425.145C1590.53 446.928 1563.72 459.544 1535.43 459.544H1438.84C1410.54 459.544 1383.73 446.928 1365.73 425.145L1236.63 268.9C1218.63 247.117 1191.82 234.501 1163.53 234.5H1066.94C1038.64 234.5 1011.83 247.117 993.831 268.9L864.73 425.145C846.729 446.928 819.917 459.544 791.625 459.544H695.033C666.741 459.544 639.928 446.927 621.928 425.145L492.827 268.9C474.827 247.117 448.016 234.501 419.724 234.5H371.427" stroke="var(--stroke-0, #BE4D00)" stroke-opacity="0.2" stroke-miterlimit="10"/>
<path id="Vector_3" d="M5946.62 9.456C5946.62 4.233 5950.87 0 5956.1 0C5961.33 0 5965.57 4.233 5965.57 9.456C5965.57 14.678 5961.33 18.911 5956.1 18.911C5950.87 18.911 5946.62 14.678 5946.62 9.456Z" fill="var(--fill-0, #BE4D00)" fill-opacity="0.2"/>
<path id="Vector_4" d="M5201.87 9.456C5201.87 4.233 5206.12 0 5211.35 0C5216.58 0 5220.82 4.233 5220.82 9.456C5220.82 14.678 5216.58 18.911 5211.35 18.911C5206.12 18.911 5201.87 14.678 5201.87 9.456Z" fill="var(--fill-0, #BE4D00)" fill-opacity="0.2"/>
<path id="Vector_5" d="M4457.12 9.456C4457.12 4.233 4461.37 0 4466.6 0C4471.83 0 4476.08 4.233 4476.08 9.456C4476.08 14.678 4471.83 18.911 4466.6 18.911C4461.37 18.911 4457.12 14.678 4457.12 9.456Z" fill="var(--fill-0, #BE4D00)" fill-opacity="0.2"/>
<path id="Vector_6" d="M3712.38 9.456C3712.38 4.233 3716.62 0 3721.85 0C3727.08 0 3731.33 4.233 3731.33 9.456C3731.33 14.678 3727.08 18.911 3721.85 18.911C3716.62 18.911 3712.38 14.678 3712.38 9.456Z" fill="var(--fill-0, #BE4D00)" fill-opacity="0.2"/>
<path id="Vector_7" d="M2967.63 9.456C2967.63 4.233 2971.87 0 2977.1 0C2982.33 0 2986.58 4.233 2986.58 9.456C2986.58 14.678 2982.33 18.911 2977.1 18.911C2971.87 18.911 2967.63 14.678 2967.63 9.456Z" fill="var(--fill-0, #BE4D00)" fill-opacity="0.2"/>
<path id="Vector_8" d="M2222.88 9.456C2222.88 4.233 2227.12 0 2232.35 0C2237.59 0 2241.83 4.233 2241.83 9.456C2241.83 14.678 2237.59 18.911 2232.35 18.911C2227.12 18.911 2222.88 14.678 2222.88 9.456Z" fill="var(--fill-0, #BE4D00)" fill-opacity="0.2"/>
<path id="Vector_9" d="M1478.13 9.456C1478.13 4.233 1482.37 0 1487.6 0C1492.84 0 1497.08 4.233 1497.08 9.456C1497.08 14.678 1492.84 18.911 1487.6 18.911C1482.37 18.911 1478.13 14.678 1478.13 9.456Z" fill="var(--fill-0, #BE4D00)" fill-opacity="0.2"/>
<path id="Vector_10" d="M733.379 9.456C733.379 4.233 737.621 0 742.854 0C748.087 0 752.329 4.233 752.329 9.456C752.329 14.678 748.087 18.911 742.854 18.911C737.621 18.911 733.379 14.678 733.379 9.456Z" fill="var(--fill-0, #BE4D00)" fill-opacity="0.2"/>
<path id="Vector_11" d="M5946.62 459.544C5946.62 454.322 5950.87 450.089 5956.1 450.089C5961.33 450.089 5965.57 454.322 5965.57 459.544C5965.57 464.767 5961.33 469 5956.1 469C5950.87 469 5946.62 464.767 5946.62 459.544Z" fill="var(--fill-0, #BE4D00)" fill-opacity="0.2"/>
<path id="Vector_12" d="M6318.05 234.5C6318.05 229.278 6322.29 225.044 6327.52 225.044C6332.76 225.044 6337 229.278 6337 234.5C6337 239.722 6332.76 243.956 6327.52 243.956C6322.29 243.956 6318.05 239.722 6318.05 234.5Z" fill="var(--fill-0, #BE4D00)" fill-opacity="0.2"/>
<path id="Vector_13" d="M5201.87 459.544C5201.87 454.322 5206.12 450.089 5211.35 450.089C5216.58 450.089 5220.82 454.322 5220.82 459.544C5220.82 464.767 5216.58 469 5211.35 469C5206.12 469 5201.87 464.767 5201.87 459.544Z" fill="var(--fill-0, #BE4D00)" fill-opacity="0.2"/>
<path id="Vector_14" d="M5574.25 234.5C5574.25 229.8 5578.07 225.99 5582.78 225.99C5587.49 225.99 5591.3 229.8 5591.3 234.5C5591.3 239.2 5587.49 243.01 5582.78 243.01C5578.07 243.01 5574.25 239.2 5574.25 234.5Z" stroke="var(--stroke-0, #BE4D00)" stroke-opacity="0.2" stroke-miterlimit="10"/>
<path id="Vector_15" d="M4457.12 459.544C4457.12 454.322 4461.37 450.089 4466.6 450.089C4471.83 450.089 4476.08 454.322 4476.08 459.544C4476.08 464.767 4471.83 469 4466.6 469C4461.37 469 4457.12 464.767 4457.12 459.544Z" fill="var(--fill-0, #BE4D00)" fill-opacity="0.2"/>
<path id="Vector_16" d="M4829.5 234.5C4829.5 229.8 4833.32 225.99 4838.03 225.99C4842.74 225.99 4846.55 229.8 4846.55 234.5C4846.55 239.2 4842.74 243.01 4838.03 243.01C4833.32 243.01 4829.5 239.2 4829.5 234.5Z" stroke="var(--stroke-0, #BE4D00)" stroke-opacity="0.2" stroke-miterlimit="10"/>
<path id="Vector_17" d="M3712.38 459.544C3712.38 454.322 3716.62 450.089 3721.85 450.089C3727.08 450.089 3731.33 454.322 3731.33 459.544C3731.33 464.767 3727.08 469 3721.85 469C3716.62 469 3712.38 464.767 3712.38 459.544Z" fill="var(--fill-0, #BE4D00)" fill-opacity="0.2"/>
<path id="Vector_18" d="M4084.75 234.5C4084.75 229.8 4088.57 225.99 4093.28 225.99C4097.99 225.99 4101.81 229.8 4101.81 234.5C4101.81 239.2 4097.99 243.01 4093.28 243.01C4088.57 243.01 4084.75 239.2 4084.75 234.5Z" stroke="var(--stroke-0, #BE4D00)" stroke-opacity="0.2" stroke-miterlimit="10"/>
<path id="Vector_19" d="M2967.63 459.544C2967.63 454.322 2971.87 450.089 2977.1 450.089C2982.33 450.089 2986.58 454.322 2986.58 459.544C2986.58 464.767 2982.33 469 2977.1 469C2971.87 469 2967.63 464.767 2967.63 459.544Z" fill="var(--fill-0, #BE4D00)" fill-opacity="0.2"/>
<path id="Vector_20" d="M3340 234.5C3340 229.8 3343.82 225.99 3348.53 225.99C3353.24 225.99 3357.06 229.8 3357.06 234.5C3357.06 239.2 3353.24 243.01 3348.53 243.01C3343.82 243.01 3340 239.2 3340 234.5Z" stroke="var(--stroke-0, #BE4D00)" stroke-opacity="0.2" stroke-miterlimit="10"/>
<path id="Vector_21" d="M2222.88 459.544C2222.88 454.322 2227.12 450.089 2232.35 450.089C2237.59 450.089 2241.83 454.322 2241.83 459.544C2241.83 464.767 2237.59 469 2232.35 469C2227.12 469 2222.88 464.767 2222.88 459.544Z" fill="var(--fill-0, #BE4D00)" fill-opacity="0.2"/>
<path id="Vector_22" d="M2595.25 234.5C2595.25 229.8 2599.07 225.99 2603.78 225.99C2608.49 225.99 2612.31 229.8 2612.31 234.5C2612.31 239.2 2608.49 243.01 2603.78 243.01C2599.07 243.01 2595.25 239.2 2595.25 234.5Z" stroke="var(--stroke-0, #BE4D00)" stroke-opacity="0.2" stroke-miterlimit="10"/>
<path id="Vector_23" d="M1478.13 459.544C1478.13 454.322 1482.37 450.089 1487.6 450.089C1492.84 450.089 1497.08 454.322 1497.08 459.544C1497.08 464.767 1492.84 469 1487.6 469C1482.37 469 1478.13 464.767 1478.13 459.544Z" fill="var(--fill-0, #BE4D00)" fill-opacity="0.2"/>
<path id="Vector_24" d="M1850.5 234.5C1850.5 229.8 1854.32 225.99 1859.03 225.99C1863.74 225.99 1867.56 229.8 1867.56 234.5C1867.56 239.2 1863.74 243.01 1859.03 243.01C1854.32 243.01 1850.5 239.2 1850.5 234.5Z" stroke="var(--stroke-0, #BE4D00)" stroke-opacity="0.2" stroke-miterlimit="10"/>
<path id="Vector_25" d="M733.379 459.544C733.379 454.322 737.621 450.089 742.854 450.089C748.087 450.089 752.329 454.322 752.329 459.544C752.329 464.767 748.087 469 742.854 469C737.621 469 733.379 464.767 733.379 459.544Z" fill="var(--fill-0, #BE4D00)" fill-opacity="0.2"/>
<path id="Vector_26" d="M1105.75 234.5C1105.75 229.8 1109.57 225.99 1114.28 225.99C1118.99 225.99 1122.81 229.8 1122.81 234.5C1122.81 239.2 1118.99 243.01 1114.28 243.01C1109.57 243.01 1105.75 239.2 1105.75 234.5Z" stroke="var(--stroke-0, #BE4D00)" stroke-opacity="0.2" stroke-miterlimit="10"/>
<path id="Vector_27" d="M5950.41 234.5H5902.11C5873.82 234.499 5847.01 221.881 5829.02 200.098L5699.91 43.857C5681.91 22.074 5655.09 9.457 5626.8 9.456H5530.21C5501.92 9.456 5475.11 22.073 5457.12 43.855L5328.01 200.1C5310 221.883 5283.19 234.499 5254.9 234.5H5158.31C5130.02 234.503 5103.21 221.885 5085.21 200.1L4956.11 43.855C4938.1 22.073 4911.29 9.456 4883 9.456H4786.41C4758.12 9.452 4731.31 22.07 4713.31 43.855L4584.21 200.1C4566.2 221.883 4539.39 234.499 4511.1 234.5H4414.5C4386.22 234.503 4359.41 221.885 4341.41 200.1L4212.31 43.855C4194.3 22.073 4167.49 9.456 4139.19 9.456H4042.6C4014.31 9.456 3987.5 22.073 3969.49 43.855L3840.4 200.1C3822.4 221.883 3795.59 234.499 3767.29 234.5H3670.7C3642.41 234.499 3615.6 221.883 3597.59 200.1L3468.5 43.855C3450.5 22.073 3423.69 9.456 3395.39 9.456H3298.8C3270.51 9.456 3243.69 22.073 3225.69 43.855L3096.6 200.1C3078.6 221.883 3051.79 234.499 3023.49 234.5H2926.92C2898.63 234.499 2871.81 221.883 2853.81 200.1L2724.72 43.855C2706.72 22.073 2679.9 9.456 2651.61 9.456H2555.02C2526.73 9.456 2499.91 22.073 2481.91 43.855L2352.82 200.1C2334.82 221.883 2308 234.499 2279.71 234.5H2183.12C2154.82 234.499 2128.01 221.883 2110.01 200.1L1980.92 43.855C1962.92 22.073 1936.1 9.456 1907.81 9.456H1811.21C1782.92 9.456 1756.11 22.072 1738.11 43.855L1609.01 200.1C1591.01 221.883 1564.2 234.5 1535.9 234.5H1439.31C1411.02 234.5 1384.21 221.883 1366.21 200.1L1237.11 43.855C1219.11 22.072 1192.29 9.455 1164 9.456H1067.41C1039.12 9.455 1012.31 22.072 994.306 43.855L865.203 200.1C847.204 221.883 820.392 234.499 792.1 234.5H695.508C667.216 234.5 640.404 221.883 622.404 200.1L493.302 43.855C475.303 22.072 448.49 9.455 420.198 9.456H323.606C295.313 9.456 268.501 22.072 250.501 43.855L121.4 200.1C103.4 221.883 76.589 234.499 48.297 234.5H0" stroke="var(--stroke-0, #BE4D00)" stroke-opacity="0.2" stroke-miterlimit="10"/>
<path id="Vector_28" d="M5950.41 234.5H5902.11C5873.82 234.501 5847.01 247.119 5829.02 268.902L5699.91 425.145C5681.91 446.927 5655.09 459.544 5626.8 459.544H5530.21C5501.92 459.543 5475.11 446.926 5457.12 425.145L5328.01 268.9C5310 247.117 5283.19 234.501 5254.9 234.5H5158.31C5130.02 234.497 5103.21 247.115 5085.21 268.9L4956.11 425.145C4938.1 446.927 4911.29 459.544 4883 459.544H4786.41C4758.12 459.547 4731.31 446.93 4713.31 425.145L4584.21 268.9C4566.2 247.117 4539.39 234.501 4511.1 234.5H4414.5C4386.22 234.497 4359.41 247.115 4341.41 268.9L4212.31 425.145C4194.3 446.927 4167.49 459.544 4139.19 459.544H4042.6C4014.31 459.544 3987.5 446.927 3969.49 425.145L3840.4 268.9C3822.4 247.117 3795.59 234.501 3767.29 234.5H3670.7C3642.41 234.501 3615.6 247.117 3597.59 268.9L3468.5 425.143C3450.5 446.926 3423.69 459.543 3395.39 459.544H3298.8C3270.51 459.544 3243.69 446.927 3225.69 425.145L3096.6 268.9C3078.6 247.117 3051.79 234.501 3023.49 234.5H2926.92C2898.63 234.501 2871.81 247.117 2853.81 268.9L2724.72 425.145C2706.72 446.927 2679.9 459.544 2651.61 459.544H2555.02C2526.73 459.544 2499.91 446.927 2481.91 425.145L2352.82 268.9C2334.82 247.117 2308 234.501 2279.71 234.5H2183.12C2154.82 234.501 2128.01 247.117 2110.01 268.9L1980.92 425.145C1962.92 446.927 1936.1 459.544 1907.81 459.544H1811.21C1782.92 459.544 1756.11 446.927 1738.11 425.145L1609.01 268.9C1591.01 247.117 1564.2 234.5 1535.9 234.5H1439.31C1411.02 234.5 1384.21 247.117 1366.21 268.9L1237.11 425.145C1219.11 446.928 1192.29 459.544 1164 459.544H1067.41C1039.12 459.544 1012.31 446.928 994.306 425.145L865.203 268.9C847.204 247.117 820.392 234.501 792.1 234.5H695.508C667.216 234.5 640.404 247.117 622.404 268.9L493.302 425.145C475.302 446.928 448.49 459.544 420.198 459.544H323.606C295.313 459.544 268.501 446.927 250.501 425.145L121.4 268.9C103.4 247.117 76.589 234.501 48.297 234.5H0" stroke="var(--stroke-0, #BE4D00)" stroke-opacity="0.2" stroke-miterlimit="10"/>
<path id="Vector_29" d="M5575.19 9.456C5575.19 4.233 5579.44 0 5584.67 0C5589.9 0 5594.15 4.233 5594.15 9.456C5594.15 14.678 5589.9 18.911 5584.67 18.911C5579.44 18.911 5575.19 14.678 5575.19 9.456Z" fill="var(--fill-0, #BE4D00)" fill-opacity="0.2"/>
<path id="Vector_30" d="M4830.45 9.456C4830.45 4.233 4834.69 0 4839.92 0C4845.15 0 4849.4 4.233 4849.4 9.456C4849.4 14.678 4845.15 18.911 4839.92 18.911C4834.69 18.911 4830.45 14.678 4830.45 9.456Z" fill="var(--fill-0, #BE4D00)" fill-opacity="0.2"/>
<path id="Vector_31" d="M4085.7 9.456C4085.7 4.233 4089.94 0 4095.17 0C4100.41 0 4104.65 4.233 4104.65 9.456C4104.65 14.678 4100.41 18.911 4095.17 18.911C4089.94 18.911 4085.7 14.678 4085.7 9.456Z" fill="var(--fill-0, #BE4D00)" fill-opacity="0.2"/>
<path id="Vector_32" d="M3340.95 9.456C3340.95 4.233 3345.19 0 3350.42 0C3355.66 0 3359.9 4.233 3359.9 9.456C3359.9 14.678 3355.66 18.911 3350.42 18.911C3345.19 18.911 3340.95 14.678 3340.95 9.456Z" fill="var(--fill-0, #BE4D00)" fill-opacity="0.2"/>
<path id="Vector_33" d="M2596.2 9.456C2596.2 4.233 2600.44 0 2605.67 0C2610.91 0 2615.15 4.233 2615.15 9.456C2615.15 14.678 2610.91 18.911 2605.67 18.911C2600.44 18.911 2596.2 14.678 2596.2 9.456Z" fill="var(--fill-0, #BE4D00)" fill-opacity="0.2"/>
<path id="Vector_34" d="M1851.45 9.456C1851.45 4.233 1855.69 0 1860.93 0C1866.16 0 1870.4 4.233 1870.4 9.456C1870.4 14.678 1866.16 18.911 1860.93 18.911C1855.69 18.911 1851.45 14.678 1851.45 9.456Z" fill="var(--fill-0, #BE4D00)" fill-opacity="0.2"/>
<path id="Vector_35" d="M1106.7 9.456C1106.7 4.233 1110.94 0 1116.18 0C1121.41 0 1125.65 4.233 1125.65 9.456C1125.65 14.678 1121.41 18.911 1116.18 18.911C1110.94 18.911 1106.7 14.678 1106.7 9.456Z" fill="var(--fill-0, #BE4D00)" fill-opacity="0.2"/>
<path id="Vector_36" d="M361.952 9.456C361.952 4.233 366.194 0 371.427 0C376.66 0 380.902 4.233 380.902 9.456C380.902 14.678 376.66 18.911 371.427 18.911C366.194 18.911 361.952 14.678 361.952 9.456Z" fill="var(--fill-0, #BE4D00)" fill-opacity="0.2"/>
<path id="Vector_37" d="M5575.19 459.544C5575.19 454.322 5579.44 450.089 5584.67 450.089C5589.9 450.089 5594.15 454.322 5594.15 459.544C5594.15 464.767 5589.9 469 5584.67 469C5579.44 469 5575.19 464.767 5575.19 459.544Z" fill="var(--fill-0, #BE4D00)" fill-opacity="0.2"/>
<path id="Vector_38" d="M5947.57 234.5C5947.57 229.8 5951.39 225.99 5956.1 225.99C5960.81 225.99 5964.63 229.8 5964.63 234.5C5964.63 239.2 5960.81 243.01 5956.1 243.01C5951.39 243.01 5947.57 239.2 5947.57 234.5Z" stroke="var(--stroke-0, #BE4D00)" stroke-opacity="0.2" stroke-miterlimit="10"/>
<path id="Vector_39" d="M4830.45 459.544C4830.45 454.322 4834.69 450.089 4839.92 450.089C4845.15 450.089 4849.4 454.322 4849.4 459.544C4849.4 464.767 4845.15 469 4839.92 469C4834.69 469 4830.45 464.767 4830.45 459.544Z" fill="var(--fill-0, #BE4D00)" fill-opacity="0.2"/>
<path id="Vector_40" d="M5202.82 234.5C5202.82 229.8 5206.64 225.99 5211.35 225.99C5216.06 225.99 5219.88 229.8 5219.88 234.5C5219.88 239.2 5216.06 243.01 5211.35 243.01C5206.64 243.01 5202.82 239.2 5202.82 234.5Z" stroke="var(--stroke-0, #BE4D00)" stroke-opacity="0.2" stroke-miterlimit="10"/>
<path id="Vector_41" d="M4085.7 459.544C4085.7 454.322 4089.94 450.089 4095.17 450.089C4100.41 450.089 4104.65 454.322 4104.65 459.544C4104.65 464.767 4100.41 469 4095.17 469C4089.94 469 4085.7 464.767 4085.7 459.544Z" fill="var(--fill-0, #BE4D00)" fill-opacity="0.2"/>
<path id="Vector_42" d="M4458.07 234.5C4458.07 229.8 4461.89 225.99 4466.6 225.99C4471.31 225.99 4475.13 229.8 4475.13 234.5C4475.13 239.2 4471.31 243.01 4466.6 243.01C4461.89 243.01 4458.07 239.2 4458.07 234.5Z" stroke="var(--stroke-0, #BE4D00)" stroke-opacity="0.2" stroke-miterlimit="10"/>
<path id="Vector_43" d="M3340.95 459.544C3340.95 454.322 3345.19 450.089 3350.42 450.089C3355.66 450.089 3359.9 454.322 3359.9 459.544C3359.9 464.767 3355.66 469 3350.42 469C3345.19 469 3340.95 464.767 3340.95 459.544Z" fill="var(--fill-0, #BE4D00)" fill-opacity="0.2"/>
<path id="Vector_44" d="M3713.32 234.5C3713.32 229.8 3717.14 225.99 3721.85 225.99C3726.56 225.99 3730.38 229.8 3730.38 234.5C3730.38 239.2 3726.56 243.01 3721.85 243.01C3717.14 243.01 3713.32 239.2 3713.32 234.5Z" stroke="var(--stroke-0, #BE4D00)" stroke-opacity="0.2" stroke-miterlimit="10"/>
<path id="Vector_45" d="M2596.2 459.544C2596.2 454.322 2600.44 450.089 2605.67 450.089C2610.91 450.089 2615.15 454.322 2615.15 459.544C2615.15 464.767 2610.91 469 2605.67 469C2600.44 469 2596.2 464.767 2596.2 459.544Z" fill="var(--fill-0, #BE4D00)" fill-opacity="0.2"/>
<path id="Vector_46" d="M2968.57 234.5C2968.57 229.8 2972.39 225.99 2977.1 225.99C2981.81 225.99 2985.63 229.8 2985.63 234.5C2985.63 239.2 2981.81 243.01 2977.1 243.01C2972.39 243.01 2968.57 239.2 2968.57 234.5Z" stroke="var(--stroke-0, #BE4D00)" stroke-opacity="0.2" stroke-miterlimit="10"/>
<path id="Vector_47" d="M1851.45 459.544C1851.45 454.322 1855.69 450.089 1860.93 450.089C1866.16 450.089 1870.4 454.322 1870.4 459.544C1870.4 464.767 1866.16 469 1860.93 469C1855.69 469 1851.45 464.767 1851.45 459.544Z" fill="var(--fill-0, #BE4D00)" fill-opacity="0.2"/>
<path id="Vector_48" d="M2223.82 234.5C2223.82 229.8 2227.64 225.99 2232.35 225.99C2237.06 225.99 2240.88 229.8 2240.88 234.5C2240.88 239.2 2237.06 243.01 2232.35 243.01C2227.64 243.01 2223.82 239.2 2223.82 234.5Z" stroke="var(--stroke-0, #BE4D00)" stroke-opacity="0.2" stroke-miterlimit="10"/>
<path id="Vector_49" d="M1106.7 459.544C1106.7 454.322 1110.94 450.089 1116.18 450.089C1121.41 450.089 1125.65 454.322 1125.65 459.544C1125.65 464.767 1121.41 469 1116.18 469C1110.94 469 1106.7 464.767 1106.7 459.544Z" fill="var(--fill-0, #BE4D00)" fill-opacity="0.2"/>
<path id="Vector_50" d="M1479.07 234.5C1479.07 229.8 1482.89 225.99 1487.6 225.99C1492.31 225.99 1496.13 229.8 1496.13 234.5C1496.13 239.2 1492.31 243.01 1487.6 243.01C1482.89 243.01 1479.07 239.2 1479.07 234.5Z" stroke="var(--stroke-0, #BE4D00)" stroke-opacity="0.2" stroke-miterlimit="10"/>
<path id="Vector_51" d="M361.952 459.544C361.952 454.322 366.194 450.089 371.427 450.089C376.66 450.089 380.902 454.322 380.902 459.544C380.902 464.767 376.66 469 371.427 469C366.194 469 361.952 464.767 361.952 459.544Z" fill="var(--fill-0, #BE4D00)" fill-opacity="0.2"/>
<path id="Vector_52" d="M734.326 234.5C734.326 229.8 738.144 225.99 742.854 225.99C747.564 225.99 751.382 229.8 751.382 234.5C751.382 239.2 747.564 243.01 742.854 243.01C738.144 243.01 734.326 239.2 734.326 234.5Z" stroke="var(--stroke-0, #BE4D00)" stroke-opacity="0.2" stroke-miterlimit="10"/>
</g>
</svg>
