<svg width="1200" height="720" viewBox="0 0 1200 720" fill="none" xmlns="http://www.w3.org/2000/svg">
  <defs>
    <linearGradient id="bg" x1="0" y1="0" x2="1" y2="1">
      <stop offset="0" stop-color="#EEF2FF"/>
      <stop offset="1" stop-color="#FFFFFF"/>
    </linearGradient>
    <linearGradient id="bar" x1="0" y1="0" x2="1" y2="0">
      <stop offset="0" stop-color="#2563EB"/>
      <stop offset="0.45" stop-color="#14B8A6"/>
      <stop offset="0.75" stop-color="#A855F7"/>
      <stop offset="1" stop-color="#6366F1"/>
    </linearGradient>
    <pattern id="grid" width="28" height="28" patternUnits="userSpaceOnUse">
      <path d="M28 0H0V28" stroke="#9CA3AF" stroke-opacity="0.18"/>
    </pattern>
    <filter id="shadow" x="-20%" y="-20%" width="140%" height="140%">
      <feDropShadow dx="0" dy="14" stdDeviation="18" flood-color="#111827" flood-opacity="0.16"/>
    </filter>
  </defs>

  <rect width="1200" height="720" rx="28" fill="url(#bg)"/>
  <rect x="44" y="44" width="1112" height="632" rx="22" fill="url(#grid)" opacity="0.55"/>

  <g filter="url(#shadow)">
    <rect x="130" y="110" width="940" height="500" rx="18" fill="#FFFFFF"/>
    <rect x="130" y="110" width="940" height="54" rx="18" fill="#F3F4F6"/>
    <rect x="162" y="128" width="140" height="18" rx="9" fill="#111827" opacity="0.08"/>
    <rect x="320" y="128" width="170" height="18" rx="9" fill="#111827" opacity="0.06"/>
    <rect x="510" y="128" width="80" height="18" rx="9" fill="#111827" opacity="0.06"/>

    <!-- metric chips -->
    <rect x="162" y="188" width="260" height="78" rx="14" fill="#2563EB" opacity="0.95"/>
    <rect x="446" y="188" width="260" height="78" rx="14" fill="#14B8A6" opacity="0.95"/>
    <rect x="730" y="188" width="308" height="78" rx="14" fill="#7C3AED" opacity="0.95"/>

    <!-- chart area -->
    <rect x="162" y="286" width="876" height="276" rx="14" fill="#F9FAFB"/>
    <path d="M188 520C244 450 292 470 340 430C388 390 430 510 478 480C526 450 574 430 622 440C670 450 718 420 766 430C814 440 862 410 910 420C958 430 1000 400 1012 392" stroke="#2563EB" stroke-width="4" stroke-linecap="round" fill="none" opacity="0.85"/>
    <path d="M188 500C240 520 292 500 340 510C388 520 430 480 478 470C526 460 574 490 622 500C670 510 718 470 766 462C814 454 862 480 910 490C958 500 1000 470 1012 458" stroke="#14B8A6" stroke-width="4" stroke-linecap="round" fill="none" opacity="0.75"/>
    <path d="M188 470C240 430 292 460 340 450C388 440 430 420 478 430C526 440 574 420 622 410C670 400 718 420 766 430C814 440 862 420 910 410C958 400 1000 420 1012 430" stroke="#7C3AED" stroke-width="4" stroke-linecap="round" fill="none" opacity="0.55"/>

    <!-- bottom caption -->
    <rect x="162" y="584" width="420" height="14" rx="7" fill="#111827" opacity="0.06"/>
    <rect x="162" y="606" width="520" height="14" rx="7" fill="#111827" opacity="0.05"/>
  </g>
</svg>

