<svg width="1600" height="900" viewBox="0 0 1600 900" fill="none" xmlns="http://www.w3.org/2000/svg">
  <defs>
    <linearGradient id="bg" x1="0" y1="0" x2="1" y2="1">
      <stop offset="0" stop-color="#0B2B5E"/>
      <stop offset="1" stop-color="#0A1530"/>
    </linearGradient>
    <pattern id="grid" width="40" height="40" patternUnits="userSpaceOnUse">
      <path d="M40 0H0V40" stroke="#60A5FA" stroke-opacity="0.15"/>
    </pattern>
  </defs>

  <rect width="1600" height="900" fill="url(#bg)"/>
  <rect width="1600" height="900" fill="url(#grid)"/>

  <path d="M130 730C320 620 500 720 700 660C900 600 1130 700 1470 620V900H130V730Z" fill="#083B77" opacity="0.8"/>
  <path d="M200 620C380 540 560 630 730 580C900 530 1090 620 1400 560" stroke="#38BDF8" stroke-width="4" opacity="0.45"/>
  <path d="M220 540C410 490 550 560 760 520C980 478 1150 560 1360 510" stroke="#60A5FA" stroke-width="3" opacity="0.35"/>

  <circle cx="780" cy="500" r="18" fill="#F97316"/>
  <circle cx="780" cy="500" r="34" stroke="#F97316" stroke-opacity="0.35" stroke-width="8"/>
  <text x="810" y="510" fill="#E2E8F0" font-family="Arial, sans-serif" font-size="54" font-weight="700">Accra</text>
</svg>

