<svg width="1200" height="720" viewBox="0 0 1200 720" fill="none" xmlns="http://www.w3.org/2000/svg">
  <defs>
    <linearGradient id="g" x1="0" y1="0" x2="1" y2="1">
      <stop offset="0" stop-color="#E5E7EB"/>
      <stop offset="1" stop-color="#F9FAFB"/>
    </linearGradient>
    <linearGradient id="accent" x1="0" y1="1" x2="1" y2="0">
      <stop offset="0" stop-color="#BE4D00"/>
      <stop offset="1" stop-color="#FDBA74"/>
    </linearGradient>
    <filter id="s" x="-20%" y="-20%" width="140%" height="140%">
      <feDropShadow dx="0" dy="16" stdDeviation="18" flood-color="#111827" flood-opacity="0.18"/>
    </filter>
    <pattern id="p" width="24" height="24" patternUnits="userSpaceOnUse">
      <circle cx="3" cy="3" r="2" fill="#9CA3AF" opacity="0.18"/>
    </pattern>
  </defs>

  <rect width="1200" height="720" rx="36" fill="url(#g)"/>
  <rect x="36" y="36" width="1128" height="648" rx="28" fill="url(#p)" opacity="0.65"/>

  <g filter="url(#s)">
    <rect x="140" y="110" width="920" height="500" rx="28" fill="#FFFFFF"/>
    <rect x="140" y="110" width="920" height="14" rx="7" fill="url(#accent)"/>

    <!-- Simple "house" illustration -->
    <rect x="230" y="240" width="740" height="290" rx="24" fill="#F3F4F6"/>
    <path d="M300 320L600 190L900 320V520H300V320Z" fill="#E5E7EB"/>
    <path d="M360 330H520V460H360V330Z" fill="#FFFFFF"/>
    <path d="M560 330H720V460H560V330Z" fill="#FFFFFF"/>
    <path d="M760 330H860V520H760V330Z" fill="#FFFFFF"/>
    <path d="M470 460H550V520H470V460Z" fill="#D1D5DB"/>

    <!-- Soft caption bars -->
    <rect x="230" y="560" width="360" height="22" rx="11" fill="#111827" opacity="0.08"/>
    <rect x="230" y="592" width="520" height="18" rx="9" fill="#111827" opacity="0.06"/>
  </g>
</svg>

