<svg width="1600" height="900" viewBox="0 0 1600 900" fill="none" xmlns="http://www.w3.org/2000/svg">
  <defs>
    <linearGradient id="sky" x1="0" y1="0" x2="1" y2="1">
      <stop offset="0" stop-color="#93C5FD"/>
      <stop offset="0.55" stop-color="#FCA5A5"/>
      <stop offset="1" stop-color="#FDBA74"/>
    </linearGradient>
    <filter id="shadow" x="-20%" y="-20%" width="140%" height="140%">
      <feDropShadow dx="0" dy="16" stdDeviation="18" flood-color="#111827" flood-opacity="0.14"/>
    </filter>
    <pattern id="grain" width="6" height="6" patternUnits="userSpaceOnUse">
      <circle cx="1" cy="1" r="0.7" fill="#111827" opacity="0.08"/>
    </pattern>
  </defs>

  <rect width="1600" height="900" rx="28" fill="url(#sky)"/>
  <rect width="1600" height="900" rx="28" fill="url(#grain)" opacity="0.25"/>

  <g filter="url(#shadow)">
    <rect x="110" y="120" width="1380" height="660" rx="28" fill="#FFFFFF" opacity="0.14"/>
  </g>

  <!-- signpost silhouette -->
  <path d="M1110 250c0-16 13-29 29-29h22v480h-80V221h29c0 0 0 13 0 29Z" fill="#111827" opacity="0.85"/>
  <path d="M1158 300h250c28 0 40 36 14 52l-52 32 52 32c26 16 14 52-14 52h-250v-168Z" fill="#111827" opacity="0.9"/>
  <path d="M1144 352h240" stroke="#F9FAFB" stroke-width="10" opacity="0.12"/>
  <path d="M1144 468h240" stroke="#F9FAFB" stroke-width="10" opacity="0.12"/>

  <!-- horizon -->
  <path d="M0 740C260 700 420 820 640 780C860 740 1050 820 1280 770C1450 732 1540 725 1600 720V900H0V740Z" fill="#111827" opacity="0.15"/>
</svg>

